<?xml version="1.0" encoding="utf-8"?>
<svg
  viewBox="0 -0.5 17 17"
  xmlns="http://www.w3.org/2000/svg"
  aria-hidden="true"
  focusable="false"
  class="icon-quote-close"
>
  <path
    d="M2,14.969 C1.447,14.969 1,14.534 1,14 C1,13.466 1.447,13.031 2,13.031 C4.757,13.031 6,11.83 6,9.124 L6,7.978 L2.559,7.978 C1.729,7.978 1.053,7.3 1.053,6.467 L1.053,2.511 C1.053,1.677 1.729,0.999 2.559,0.999 L6.494,0.999 C7.324,0.999 8,1.677 8,2.511 L8,9.123 C8,12.898 5.859,14.969 2,14.969 Z"
    fill="currentColor"
  />
  <path
    d="M11,14.969 C10.447,14.969 10,14.534 10,14 C10,13.466 10.447,13.031 11,13.031 C13.757,13.031 15,11.83 15,9.124 L15,7.947 L11.533,7.947 C10.699,7.947 10.021,7.271 10.021,6.441 L10.021,2.505 C10.021,1.675 10.699,0.999 11.533,0.999 L15.488,0.999 C16.322,0.999 17,1.675 17,2.505 L17,9.123 C17,12.898 14.859,14.969 11,14.969 Z"
    fill="currentColor"
  />
</svg>

